#!OML:ASF E:\id_vita\Project 1\Capture day 1\Session 1\Female.ASF
:FULLY-SPECIFIED
:DEGREES
1393
root 21.127 16.8393 -3.28317 -147.703 -2.4165 -182.232
lowerback -14.0851 -2.85248 -2.02105
upperback -5.49359 -4.30558 2.77334
thorax 2.43616 -2.41242 3.335
lowerneck -9.64464 0.623916 -8.6629
upperneck -6.70216 2.40391 4.30483
head -0.63371 1.67566 2.95977
rclavicle -2.11706e-014 5.56597e-015
rhumerus 83.1194 6.05348 -57.4242
rradius 16.6413
rwrist 35.3659
rhand -34.2498 15.6946
rfingers 7.12502
rthumb -7.4207 -14.1553
lclavicle -2.11706e-014 5.56597e-015
lhumerus 83.0155 3.31501 73.5973
lradius 14.5829
lwrist -71.5193
lhand -28.9839 34.8894
lfingers 7.12502
lthumb -2.33618 64.8564
rfemur -45.6321 10.8428 11.8761
rtibia 13.1447
rfoot 4.88496 -8.94944
rtoes -7.49923
lfemur -19.5745 0.788237 -25.0182
ltibia 19.859
lfoot -10.566 -10.194
ltoes -2.24654
1394
root 21.1251 16.8359 -3.28766 -147.714 -2.514 -182.183
lowerback -14.0878 -2.96509 -2.12691
upperback -5.48526 -4.44927 2.97122
thorax 2.47969 -2.48344 3.57722
lowerneck -9.59747 0.791943 -8.19498
upperneck -6.92676 2.58574 3.67502
head -0.712628 1.7664 2.65675
rclavicle 1.09332e-015 -2.34566e-014
rhumerus 83.1574 6.36758 -55.5348
rradius 17.058
rwrist 33.3447
rhand -34.0462 15.3367
rfingers 7.12502
rthumb -7.22412 -14.52
lclavicle 1.09332e-015 -2.34566e-014
lhumerus 82.9822 3.89274 75.897
lradius 14.2887
lwrist -74.8355
lhand -29.7676 34.1962
lfingers 7.12502
lthumb -3.09303 64.1535
rfemur -45.6521 11.0271 11.7773
rtibia 13.2199
rfoot 4.96487 -9.25639
rtoes -6.99465
lfemur -19.5069 0.543043 -24.9083
ltibia 19.8071
lfoot -10.6817 -9.95144
ltoes -2.63343
1395
root 21.1214 16.8329 -3.28971 -147.766 -2.70051 -182.174
lowerback -14.1102 -2.91168 -1.96248
upperback -5.45357 -4.38828 2.83807
thorax 2.49926 -2.45229 3.35294
lowerneck -9.12344 0.875371 -7.05928
upperneck -7.44075 2.55916 2.80728
head -0.92779 1.74141 2.14399
rclavicle -3.0911e-014 -3.85642e-014
rhumerus 82.8414 6.18047 -56.1068
rradius 17.0078
rwrist 33.7165
rhand -33.7654 15.1881
rfingers 7.12502
rthumb -6.95313 -14.6777
lclavicle -3.0911e-014 -3.85642e-014
lhumerus 82.7526 3.27894 72.6279
lradius 14.5458
lwrist -70.0459
lhand -28.0598 35.2513
lfingers 7.12502
lthumb -1.44371 65.2262
rfemur -45.6283 11.0314 11.7944
rtibia 13.3316
rfoot 5.06731 -9.38462
rtoes -7.58703
lfemur -19.414 0.328884 -24.812
ltibia 19.7586
lfoot -10.7729 -9.89702
ltoes -3.00242
1396
root 21.1181 16.8289 -3.29117 -147.781 -2.87884 -182.169
lowerback -14.1715 -2.86948 -1.77042
upperback -5.46174 -4.35318 2.70764
thorax 2.49839 -2.43696 3.11109
lowerneck -8.76075 0.849701 -6.67205
upperneck -7.7985 2.47418 2.56757
head -1.08944 1.69929 1.98644
rclavicle 1.78906e-014 1.86858e-014
rhumerus 82.5397 6.00839 -57.3529
rradius 16.8311
rwrist 34.9192
rhand -33.4373 15.1832
rfingers 7.12502
rthumb -6.63641 -14.6928
lclavicle 1.78906e-014 1.86858e-014
lhumerus 82.6465 2.93386 71.5496
lradius 14.5935
lwrist -68.6342
lhand -27.3699 35.329
lfingers 7.12502
lthumb -0.777347 65.3073
rfemur -45.6258 10.7824 12.015
rtibia 13.4373
rfoot 5.058 -9.16272
rtoes -8.66809
lfemur -19.4051 0.647147 -24.8437
ltibia 19.741
lfoot -10.9802 -10.2631
ltoes -3.64519
1397
root 21.1158 16.8256 -3.29405 -147.734 -2.98732 -182.118
lowerback -14.2448 -2.86045 -1.67873
upperback -5.48115 -4.35818 2.70647
thorax 2.51147 -2.4424 3.05408
lowerneck -8.98327 0.885259 -6.49639
upperneck -7.60141 2.51681 2.59487
head -0.989006 1.71161 1.96793
rclavicle 3.84648e-014 1.59028e-015
rhumerus 82.4141 5.90055 -57.5017
rradius 16.8111
rwrist 34.9244
rhand -33.2168 15.1716
rfingers 7.12502
rthumb -6.42354 -14.711
lclavicle 3.84648e-014 1.59028e-015
lhumerus 82.6198 2.79325 71.3066
lradius 14.6228
lwrist -68.1674
lhand -26.9221 35.1538
lfingers 7.12502
lthumb -0.344894 65.1333
rfemur -45.6926 10.3664 12.405
rtibia 13.571
rfoot 4.71794 -8.72404
rtoes -9.03748
lfemur -19.4579 0.879463 -24.8272
ltibia 19.7345
lfoot -11.0916 -10.464
ltoes -3.6998
1398
root 21.1125 16.8251 -3.2962 -147.658 -3.07219 -182.082
lowerback -14.3095 -2.82937 -1.64073
upperback -5.53858 -4.33279 2.71319
thorax 2.48181 -2.43415 3.04263
lowerneck -9.01657 0.741955 -6.71724
upperneck -7.59278 2.35421 2.78215
head -0.978186 1.63651 2.06785
rclavicle 4.54223e-014 -5.1684e-015
rhumerus 82.2591 5.76302 -57.5132
rradius 16.7947
rwrist 34.6684
rhand -32.7922 15.6992
rfingers 7.12502
rthumb -6.01358 -14.1954
lclavicle 4.54223e-014 -5.1684e-015
lhumerus 82.6261 2.86071 72.63
lradius 14.4389
lwrist -70.2126
lhand -27.7089 33.8626
lfingers 7.12502
lthumb -1.10474 63.8395
rfemur -45.8328 9.93202 12.7658
rtibia 13.7963
rfoot 4.27923 -8.35767
rtoes -8.83882
lfemur -19.5141 0.963592 -24.7952
ltibia 19.6924
lfoot -11.1274 -10.5391
ltoes -3.44474
1399
root 21.1075 16.8272 -3.29898 -147.615 -3.15159 -182.072
lowerback -14.3817 -2.7904 -1.55721
upperback -5.6184 -4.30424 2.6711
thorax 2.4258 -2.42593 2.95543
lowerneck -8.67482 0.724904 -6.81307
upperneck -7.77389 2.32071 2.97258
head -1.09573 1.62068 2.14378
rclavicle 6.79844e-014 -2.0276e-014
rhumerus 82.0339 5.69547 -57.3255
rradius 16.8738
rwrist 34.2643
rhand -32.2898 15.9341
rfingers 7.12502
rthumb -5.52854 -13.9738
lclavicle 6.79844e-014 -2.0276e-014
lhumerus 82.4456 2.78403 72.134
lradius 14.4555
lwrist -69.9068
lhand -27.7054 33.2834
lfingers 7.12502
lthumb -1.10143 63.2603
rfemur -45.9742 9.85819 12.7806
rtibia 14.0479
rfoot 4.03227 -8.50835
rtoes -7.32497
lfemur -19.5322 1.09736 -24.8145
ltibia 19.6353
lfoot -11.212 -10.6366
ltoes -3.392
1400
root 21.1024 16.8293 -3.30291 -147.617 -3.18274 -182.091
lowerback -14.4171 -2.82293 -1.44816
upperback -5.60382 -4.35803 2.6221
thorax 2.45277 -2.45325 2.83114
lowerneck -8.68472 0.74853 -6.88394
upperneck -7.90309 2.37706 3.06348
head -1.14093 1.65787 2.1874
rclavicle -3.26007e-014 -4.37326e-015
rhumerus 82.0543 5.72399 -57.1762
rradius 16.9503
rwrist 33.904
rhand -32.0331 15.4702
rfingers 7.12502
rthumb -5.28069 -14.444
lclavicle -3.26007e-014 -4.37326e-015
lhumerus 82.3892 2.91333 71.5275
lradius 14.5068
lwrist -69.5189
lhand -27.0172 33.2989
lfingers 7.12502
lthumb -0.436678 63.2782
rfemur -46.0681 9.97955 12.5988
rtibia 14.2739
rfoot 3.83774 -8.89601
rtoes -5.28256
lfemur -19.4889 1.08525 -24.8526
ltibia 19.5808
lfoot -11.2025 -10.581
ltoes -3.11241
1401
root 21.1002 16.8296 -3.30652 -147.654 -3.2061 -182.092
lowerback -14.3424 -2.77536 -1.64789
upperback -5.67024 -4.27766 2.66208
thorax 2.35349 -2.41357 3.00562
lowerneck -8.38182 0.739995 -6.48629
upperneck -8.06965 2.29703 2.64439
head -1.22928 1.60958 1.97098
rclavicle 3.29983e-014 -2.46493e-014
rhumerus 81.8343 5.58211 -57.2185
rradius 16.9266
rwrist 34.0674
rhand -32.0074 14.9806
rfingers 7.12502
rthumb -5.25591 -14.9343
lclavicle 3.29983e-014 -2.46493e-014
lhumerus 82.3736 2.74086 71.6438
lradius 14.4803
lwrist -69.7023
lhand -26.5081 33.1415
lfingers 7.12502
lthumb 0.0549927 63.1213
rfemur -46.1162 9.95093 12.6054
rtibia 14.5085
rfoot 3.56401 -9.04983
rtoes -4.14469
lfemur -19.3939 1.16801 -24.87
ltibia 19.4993
lfoot -11.1367 -10.6493
ltoes -2.94679
1402
root 21.0993 16.8291 -3.30999 -147.665 -3.21343 -182.044
lowerback -14.291 -2.75072 -1.7267
upperback -5.71772 -4.24089 2.67123
thorax 2.27917 -2.39607 3.07035
lowerneck -8.17079 0.824706 -5.73395
upperneck -8.22606 2.31597 1.96096
head -1.29432 1.60529 1.60943
rclavicle -2.65378e-014 -1.59028e-015
rhumerus 81.7336 5.48955 -56.9441
rradius 16.958
rwrist 33.9234
rhand -31.9496 14.7534
rfingers 7.12502
rthumb -5.20011 -15.1628
lclavicle -2.65378e-014 -1.59028e-015
lhumerus 82.4172 2.70231 71.9016
lradius 14.4292
lwrist -70.2625
lhand -26.1688 32.5874
lfingers 7.12502
lthumb 0.382676 62.5668
rfemur -46.1954 10.0601 12.59
rtibia 14.7237
rfoot 3.43779 -9.28008
rtoes -3.92582
lfemur -19.3083 1.08481 -24.8017
ltibia 19.4113
lfoot -11.0774 -10.5252
ltoes -3.15395
1403
root 21.0977 16.8281 -3.31359 -147.653 -3.20942 -182.016
lowerback -14.2643 -2.81234 -1.83649
upperback -5.7535 -4.3177 2.77697
thorax 2.24744 -2.43477 3.23268
lowerneck -8.23886 0.87023 -6.00992
upperneck -8.22683 2.41137 2.08972
head -1.29353 1.66177 1.70221
rclavicle -2.20651e-014 -1.55052e-014
rhumerus 81.8445 5.54876 -55.9475
rradius 17.1475
rwrist 33.0833
rhand -31.4492 15.2052
rfingers 7.12502
rthumb -4.71691 -14.7223
lclavicle -2.20651e-014 -1.55052e-014
lhumerus 82.4391 2.96193 72.6006
lradius 14.3792
lwrist -71.3256
lhand -25.9391 31.8268
lfingers 7.12502
lthumb 0.604571 61.8057
rfemur -46.2804 10.182 12.5311
rtibia 14.8866
rfoot 3.47716 -9.44273
rtoes -3.4156
lfemur -19.2348 0.682115 -24.7119
ltibia 19.3493
lfoot -11.064 -10.0735
ltoes -3.48705
